<mxfile host="app.diagrams.net" modified="2022-01-19T08:28:02.112Z" agent="5.0 (Macintosh; Intel Mac OS X 10_15_7) AppleWebKit/605.1.15 (KHTML, like Gecko) Version/15.2 Safari/605.1.15" etag="zyVi9ggNvn22LRFXlO_6" version="16.3.0" type="github">
  <diagram id="Rv-vcWPGjR_w-9yesb9B" name="Page-1">
    <mxGraphModel dx="1426" dy="825" grid="1" gridSize="10" guides="1" tooltips="1" connect="1" arrows="1" fold="1" page="1" pageScale="1" pageWidth="827" pageHeight="1169" math="0" shadow="0">
      <root>
        <mxCell id="0" />
        <mxCell id="1" parent="0" />
        <mxCell id="JOU3UGK-rvBCgifyBjI7-1" value="" style="ellipse;whiteSpace=wrap;html=1;aspect=fixed;" vertex="1" parent="1">
          <mxGeometry x="30" y="190" width="30" height="30" as="geometry" />
        </mxCell>
        <mxCell id="JOU3UGK-rvBCgifyBjI7-2" value="" style="ellipse;whiteSpace=wrap;html=1;aspect=fixed;" vertex="1" parent="1">
          <mxGeometry x="30" y="250" width="30" height="30" as="geometry" />
        </mxCell>
        <mxCell id="JOU3UGK-rvBCgifyBjI7-3" value="" style="ellipse;whiteSpace=wrap;html=1;aspect=fixed;" vertex="1" parent="1">
          <mxGeometry x="30" y="310" width="30" height="30" as="geometry" />
        </mxCell>
        <mxCell id="JOU3UGK-rvBCgifyBjI7-4" value="" style="ellipse;whiteSpace=wrap;html=1;aspect=fixed;" vertex="1" parent="1">
          <mxGeometry x="30" y="370" width="30" height="30" as="geometry" />
        </mxCell>
        <mxCell id="JOU3UGK-rvBCgifyBjI7-5" value="" style="ellipse;whiteSpace=wrap;html=1;aspect=fixed;" vertex="1" parent="1">
          <mxGeometry x="30" y="430" width="30" height="30" as="geometry" />
        </mxCell>
        <mxCell id="JOU3UGK-rvBCgifyBjI7-6" value="" style="ellipse;whiteSpace=wrap;html=1;aspect=fixed;" vertex="1" parent="1">
          <mxGeometry x="30" y="490" width="30" height="30" as="geometry" />
        </mxCell>
        <mxCell id="JOU3UGK-rvBCgifyBjI7-7" value="" style="ellipse;whiteSpace=wrap;html=1;aspect=fixed;" vertex="1" parent="1">
          <mxGeometry x="30" y="554.5" width="30" height="30" as="geometry" />
        </mxCell>
        <mxCell id="JOU3UGK-rvBCgifyBjI7-8" value="" style="ellipse;whiteSpace=wrap;html=1;aspect=fixed;" vertex="1" parent="1">
          <mxGeometry x="30" y="610" width="30" height="30" as="geometry" />
        </mxCell>
        <mxCell id="JOU3UGK-rvBCgifyBjI7-17" value="" style="ellipse;whiteSpace=wrap;html=1;aspect=fixed;" vertex="1" parent="1">
          <mxGeometry x="180" y="130" width="30" height="30" as="geometry" />
        </mxCell>
        <mxCell id="JOU3UGK-rvBCgifyBjI7-18" value="" style="ellipse;whiteSpace=wrap;html=1;aspect=fixed;" vertex="1" parent="1">
          <mxGeometry x="180" y="190" width="30" height="30" as="geometry" />
        </mxCell>
        <mxCell id="JOU3UGK-rvBCgifyBjI7-19" value="" style="ellipse;whiteSpace=wrap;html=1;aspect=fixed;" vertex="1" parent="1">
          <mxGeometry x="180" y="250" width="30" height="30" as="geometry" />
        </mxCell>
        <mxCell id="JOU3UGK-rvBCgifyBjI7-20" value="" style="ellipse;whiteSpace=wrap;html=1;aspect=fixed;" vertex="1" parent="1">
          <mxGeometry x="180" y="310" width="30" height="30" as="geometry" />
        </mxCell>
        <mxCell id="JOU3UGK-rvBCgifyBjI7-21" value="" style="ellipse;whiteSpace=wrap;html=1;aspect=fixed;" vertex="1" parent="1">
          <mxGeometry x="180" y="370" width="30" height="30" as="geometry" />
        </mxCell>
        <mxCell id="JOU3UGK-rvBCgifyBjI7-22" value="" style="ellipse;whiteSpace=wrap;html=1;aspect=fixed;" vertex="1" parent="1">
          <mxGeometry x="180" y="430" width="30" height="30" as="geometry" />
        </mxCell>
        <mxCell id="JOU3UGK-rvBCgifyBjI7-23" value="" style="ellipse;whiteSpace=wrap;html=1;aspect=fixed;" vertex="1" parent="1">
          <mxGeometry x="180" y="490" width="30" height="30" as="geometry" />
        </mxCell>
        <mxCell id="JOU3UGK-rvBCgifyBjI7-24" value="" style="ellipse;whiteSpace=wrap;html=1;aspect=fixed;" vertex="1" parent="1">
          <mxGeometry x="180" y="554.5" width="30" height="30" as="geometry" />
        </mxCell>
        <mxCell id="JOU3UGK-rvBCgifyBjI7-25" value="" style="ellipse;whiteSpace=wrap;html=1;aspect=fixed;" vertex="1" parent="1">
          <mxGeometry x="180" y="610" width="30" height="30" as="geometry" />
        </mxCell>
        <mxCell id="JOU3UGK-rvBCgifyBjI7-26" value="" style="ellipse;whiteSpace=wrap;html=1;aspect=fixed;" vertex="1" parent="1">
          <mxGeometry x="180" y="670" width="30" height="30" as="geometry" />
        </mxCell>
        <mxCell id="JOU3UGK-rvBCgifyBjI7-28" value="" style="ellipse;whiteSpace=wrap;html=1;aspect=fixed;" vertex="1" parent="1">
          <mxGeometry x="250" y="310" width="30" height="30" as="geometry" />
        </mxCell>
        <mxCell id="JOU3UGK-rvBCgifyBjI7-29" value="" style="ellipse;whiteSpace=wrap;html=1;aspect=fixed;" vertex="1" parent="1">
          <mxGeometry x="250" y="370" width="30" height="30" as="geometry" />
        </mxCell>
        <mxCell id="JOU3UGK-rvBCgifyBjI7-30" value="" style="ellipse;whiteSpace=wrap;html=1;aspect=fixed;" vertex="1" parent="1">
          <mxGeometry x="250" y="430" width="30" height="30" as="geometry" />
        </mxCell>
        <mxCell id="JOU3UGK-rvBCgifyBjI7-31" value="" style="ellipse;whiteSpace=wrap;html=1;aspect=fixed;" vertex="1" parent="1">
          <mxGeometry x="250" y="490" width="30" height="30" as="geometry" />
        </mxCell>
        <mxCell id="JOU3UGK-rvBCgifyBjI7-32" value="" style="ellipse;whiteSpace=wrap;html=1;aspect=fixed;strokeColor=#000000;fillColor=#000000;" vertex="1" parent="1">
          <mxGeometry x="384" y="370" width="30" height="30" as="geometry" />
        </mxCell>
        <mxCell id="JOU3UGK-rvBCgifyBjI7-33" value="" style="ellipse;whiteSpace=wrap;html=1;aspect=fixed;fillColor=#000000;" vertex="1" parent="1">
          <mxGeometry x="384" y="430" width="30" height="30" as="geometry" />
        </mxCell>
        <mxCell id="JOU3UGK-rvBCgifyBjI7-34" value="" style="ellipse;whiteSpace=wrap;html=1;aspect=fixed;" vertex="1" parent="1">
          <mxGeometry x="520" y="310" width="30" height="30" as="geometry" />
        </mxCell>
        <mxCell id="JOU3UGK-rvBCgifyBjI7-35" value="" style="ellipse;whiteSpace=wrap;html=1;aspect=fixed;" vertex="1" parent="1">
          <mxGeometry x="520" y="370" width="30" height="30" as="geometry" />
        </mxCell>
        <mxCell id="JOU3UGK-rvBCgifyBjI7-36" value="" style="ellipse;whiteSpace=wrap;html=1;aspect=fixed;" vertex="1" parent="1">
          <mxGeometry x="520" y="430" width="30" height="30" as="geometry" />
        </mxCell>
        <mxCell id="JOU3UGK-rvBCgifyBjI7-37" value="" style="ellipse;whiteSpace=wrap;html=1;aspect=fixed;" vertex="1" parent="1">
          <mxGeometry x="520" y="490" width="30" height="30" as="geometry" />
        </mxCell>
        <mxCell id="JOU3UGK-rvBCgifyBjI7-38" value="" style="ellipse;whiteSpace=wrap;html=1;aspect=fixed;" vertex="1" parent="1">
          <mxGeometry x="590" y="130" width="30" height="30" as="geometry" />
        </mxCell>
        <mxCell id="JOU3UGK-rvBCgifyBjI7-39" value="" style="ellipse;whiteSpace=wrap;html=1;aspect=fixed;" vertex="1" parent="1">
          <mxGeometry x="590" y="190" width="30" height="30" as="geometry" />
        </mxCell>
        <mxCell id="JOU3UGK-rvBCgifyBjI7-40" value="" style="ellipse;whiteSpace=wrap;html=1;aspect=fixed;" vertex="1" parent="1">
          <mxGeometry x="590" y="250" width="30" height="30" as="geometry" />
        </mxCell>
        <mxCell id="JOU3UGK-rvBCgifyBjI7-41" value="" style="ellipse;whiteSpace=wrap;html=1;aspect=fixed;" vertex="1" parent="1">
          <mxGeometry x="590" y="310" width="30" height="30" as="geometry" />
        </mxCell>
        <mxCell id="JOU3UGK-rvBCgifyBjI7-42" value="" style="ellipse;whiteSpace=wrap;html=1;aspect=fixed;" vertex="1" parent="1">
          <mxGeometry x="590" y="370" width="30" height="30" as="geometry" />
        </mxCell>
        <mxCell id="JOU3UGK-rvBCgifyBjI7-43" value="" style="ellipse;whiteSpace=wrap;html=1;aspect=fixed;" vertex="1" parent="1">
          <mxGeometry x="590" y="430" width="30" height="30" as="geometry" />
        </mxCell>
        <mxCell id="JOU3UGK-rvBCgifyBjI7-44" value="" style="ellipse;whiteSpace=wrap;html=1;aspect=fixed;" vertex="1" parent="1">
          <mxGeometry x="590" y="490" width="30" height="30" as="geometry" />
        </mxCell>
        <mxCell id="JOU3UGK-rvBCgifyBjI7-45" value="" style="ellipse;whiteSpace=wrap;html=1;aspect=fixed;" vertex="1" parent="1">
          <mxGeometry x="590" y="554.5" width="30" height="30" as="geometry" />
        </mxCell>
        <mxCell id="JOU3UGK-rvBCgifyBjI7-46" value="" style="ellipse;whiteSpace=wrap;html=1;aspect=fixed;" vertex="1" parent="1">
          <mxGeometry x="590" y="610" width="30" height="30" as="geometry" />
        </mxCell>
        <mxCell id="JOU3UGK-rvBCgifyBjI7-47" value="" style="ellipse;whiteSpace=wrap;html=1;aspect=fixed;" vertex="1" parent="1">
          <mxGeometry x="590" y="670" width="30" height="30" as="geometry" />
        </mxCell>
        <mxCell id="JOU3UGK-rvBCgifyBjI7-48" value="" style="ellipse;whiteSpace=wrap;html=1;aspect=fixed;" vertex="1" parent="1">
          <mxGeometry x="720" y="190" width="30" height="30" as="geometry" />
        </mxCell>
        <mxCell id="JOU3UGK-rvBCgifyBjI7-49" value="" style="ellipse;whiteSpace=wrap;html=1;aspect=fixed;" vertex="1" parent="1">
          <mxGeometry x="720" y="250" width="30" height="30" as="geometry" />
        </mxCell>
        <mxCell id="JOU3UGK-rvBCgifyBjI7-50" value="" style="ellipse;whiteSpace=wrap;html=1;aspect=fixed;" vertex="1" parent="1">
          <mxGeometry x="720" y="310" width="30" height="30" as="geometry" />
        </mxCell>
        <mxCell id="JOU3UGK-rvBCgifyBjI7-51" value="" style="ellipse;whiteSpace=wrap;html=1;aspect=fixed;" vertex="1" parent="1">
          <mxGeometry x="720" y="370" width="30" height="30" as="geometry" />
        </mxCell>
        <mxCell id="JOU3UGK-rvBCgifyBjI7-52" value="" style="ellipse;whiteSpace=wrap;html=1;aspect=fixed;" vertex="1" parent="1">
          <mxGeometry x="720" y="430" width="30" height="30" as="geometry" />
        </mxCell>
        <mxCell id="JOU3UGK-rvBCgifyBjI7-53" value="" style="ellipse;whiteSpace=wrap;html=1;aspect=fixed;" vertex="1" parent="1">
          <mxGeometry x="720" y="490" width="30" height="30" as="geometry" />
        </mxCell>
        <mxCell id="JOU3UGK-rvBCgifyBjI7-54" value="" style="ellipse;whiteSpace=wrap;html=1;aspect=fixed;" vertex="1" parent="1">
          <mxGeometry x="720" y="554.5" width="30" height="30" as="geometry" />
        </mxCell>
        <mxCell id="JOU3UGK-rvBCgifyBjI7-55" value="" style="ellipse;whiteSpace=wrap;html=1;aspect=fixed;" vertex="1" parent="1">
          <mxGeometry x="720" y="610" width="30" height="30" as="geometry" />
        </mxCell>
        <mxCell id="JOU3UGK-rvBCgifyBjI7-63" value="" style="shape=curlyBracket;whiteSpace=wrap;html=1;rounded=1;flipH=1;strokeColor=#000000;fillColor=#000000;rotation=90;" vertex="1" parent="1">
          <mxGeometry x="215" y="705" width="15" height="110" as="geometry" />
        </mxCell>
        <mxCell id="JOU3UGK-rvBCgifyBjI7-64" value="" style="shape=curlyBracket;whiteSpace=wrap;html=1;rounded=1;flipH=1;strokeColor=#000000;fillColor=#000000;rotation=90;" vertex="1" parent="1">
          <mxGeometry x="570" y="705" width="15" height="110" as="geometry" />
        </mxCell>
        <mxCell id="JOU3UGK-rvBCgifyBjI7-65" value="" style="shape=curlyBracket;whiteSpace=wrap;html=1;rounded=1;flipH=1;strokeColor=#000000;fillColor=#000000;rotation=90;" vertex="1" parent="1">
          <mxGeometry x="391.5" y="490" width="15" height="70" as="geometry" />
        </mxCell>
      </root>
    </mxGraphModel>
  </diagram>
</mxfile>
